# xmcd
#
# Track frame offsets:
#	150
#	13425
#	29583
#	42135
#	62290
#	82453
#	100419
#	112189
#	129787
#	148741
#	161767
#	175115
#	187124
#	199558
#	218321
#	232731
#	246241
#
# Disc length: 3508 seconds
#
# Revision: 1
# Processed by: cddbd v1.5.2PL0 Copyright (c) Steve Scherf et al.
# Submitted via: audiograbber 1.83.01
#
DISCID=ed0db211
DTITLE=Various Artist - Motown 50 - Yesterday>Today>Forever
DYEAR=2009
DGENRE=R&B
TTITLE0=The Temptations - My Girl
TTITLE1=Diana Ross - Ain't No Mountain High Enough
TTITLE2=The Supremes - You Can't Hurry Love
TTITLE3=Stevie Wonder - Superstition
TTITLE4=Diana Ross and Lionel Richie - Endless Love
TTITLE5=Jackson 5 - I'll Be There
TTITLE6=The Supremes - Baby Love
TTITLE7=Marvin Gaye - What's Going On
TTITLE8=Michael Jackson - Ain't No Sunshine
TTITLE9=The Supremes - Stop! In The Name Of Love
TTITLE10=Jackson 5 - ABC
TTITLE11=Stevie Wonder - Signed, Sealed, Delivered I'm Yours
TTITLE12=Michael Jackson - Ben
TTITLE13=Commodores - Easy
TTITLE14=Marvin Gaye - I Heard It Through The Grapevine
TTITLE15=Jackson 5 - I Want You Back
TTITLE16=Diana Ross - I'm Still Waiting
EXTD=
EXTT0=
EXTT1=
EXTT2=
EXTT3=
EXTT4=
EXTT5=
EXTT6=
EXTT7=
EXTT8=
EXTT9=
EXTT10=
EXTT11=
EXTT12=
EXTT13=
EXTT14=
EXTT15=
EXTT16=
PLAYORDER=
